<svg width="6" height="8" viewBox="0 0 6 8" fill="none" xmlns="http://www.w3.org/2000/svg">
<path fill-rule="evenodd" clip-rule="evenodd" d="M2.85225 0.280028C2.89894 0.260015 2.9492 0.249695 3 0.249695C3.0508 0.249695 3.10106 0.260015 3.14775 0.280028L5.5455 1.3079C5.68044 1.36575 5.79544 1.46193 5.87623 1.58452C5.95702 1.70711 6.00006 1.85071 6 1.99753V4.57003C5.99995 5.03275 5.8776 5.48724 5.64533 5.88744C5.41306 6.28764 5.07913 6.61933 4.67737 6.8489L3.186 7.7009C3.12935 7.73326 3.06524 7.75028 3 7.75028C2.93476 7.75028 2.87065 7.73326 2.814 7.7009L1.32263 6.8489C0.920762 6.61926 0.586761 6.28745 0.354484 5.88711C0.122207 5.48677 -8.6811e-05 5.03213 4.62343e-08 4.56928V1.99753C1.6254e-05 1.85078 0.0430861 1.70725 0.123874 1.58474C0.204662 1.46222 0.319617 1.3661 0.4545 1.30828L2.85225 0.280028ZM4.39012 3.51515C4.45843 3.44443 4.49623 3.3497 4.49538 3.25138C4.49452 3.15305 4.45508 3.059 4.38556 2.98947C4.31603 2.91994 4.22197 2.88051 4.12365 2.87965C4.02533 2.8788 3.9306 2.91659 3.85987 2.9849L2.625 4.21978L2.14012 3.7349C2.0694 3.66659 1.97467 3.6288 1.87635 3.62965C1.77803 3.63051 1.68397 3.66994 1.61444 3.73947C1.54492 3.809 1.50548 3.90305 1.50462 4.00138C1.50377 4.0997 1.54157 4.19443 1.60988 4.26515L2.35987 5.01515C2.4302 5.08546 2.52556 5.12495 2.625 5.12495C2.72444 5.12495 2.8198 5.08546 2.89012 5.01515L4.39012 3.51515Z" fill="#2B2B2B"/>
</svg>
