<svg width="10" height="6" viewBox="0 0 10 6" fill="none" xmlns="http://www.w3.org/2000/svg">
<path d="M4.83809 4.20576C4.87588 4.25738 4.93602 4.28788 5 4.28788C5.06397 4.28788 5.12412 4.25738 5.16191 4.20576L7.7255 0.704612C7.81967 0.576003 7.96952 0.5 8.12892 0.5H8.99338C9.40661 0.5 9.64147 0.972826 9.39179 1.3021L6.35871 5.3021C6.26418 5.42677 6.11675 5.5 5.9603 5.5H4.0397C3.88325 5.5 3.73582 5.42677 3.64129 5.3021L0.608211 1.3021C0.358529 0.972825 0.593387 0.5 1.00662 0.5H1.87108C2.03048 0.5 2.18033 0.576003 2.2745 0.704612L4.83809 4.20576Z" fill="#2B2B2B"/>
</svg>
