<svg width="18" height="24" viewBox="0 0 18 24" fill="none" xmlns="http://www.w3.org/2000/svg">
<path d="M15.2395 9.97519L14.395 10.071L15.2395 9.97519ZM15.6867 13.9153L16.5313 13.8194V13.8194L15.6867 13.9153ZM2.31328 13.9153L1.4687 13.8194L2.31328 13.9153ZM2.76046 9.97519L3.60504 10.071L2.76046 9.97519ZM1.44779 15.8721L0.80053 15.3212H0.80053L1.44779 15.8721ZM16.5522 15.8721L15.905 16.4231V16.4231L16.5522 15.8721ZM11.2699 5.37366H10.4199C10.4199 5.73699 10.6509 6.06014 10.9946 6.17783L11.2699 5.37366ZM6.73005 5.37366L7.00539 6.17783C7.34913 6.06014 7.58005 5.73699 7.58005 5.37366H6.73005ZM12.7959 21.2983C12.9607 20.8587 12.7379 20.3688 12.2983 20.2041C11.8587 20.0393 11.3688 20.2621 11.2041 20.7017L12.7959 21.2983ZM6.79594 20.7017C6.63119 20.2621 6.14129 20.0393 5.7017 20.2041C5.26212 20.3688 5.03932 20.8587 5.20406 21.2983L6.79594 20.7017ZM14.7772 18.15H3.22281V19.85H14.7772V18.15ZM14.395 10.071L14.8421 14.0111L16.5313 13.8194L16.0841 9.87933L14.395 10.071ZM3.15785 14.0111L3.60504 10.071L1.91589 9.87933L1.4687 13.8194L3.15785 14.0111ZM2.09504 16.4231C2.68458 15.7305 3.05729 14.8972 3.15785 14.0111L1.4687 13.8194C1.40819 14.3526 1.18231 14.8727 0.80053 15.3212L2.09504 16.4231ZM14.8421 14.0111C14.9427 14.8972 15.3154 15.7305 15.905 16.4231L17.1995 15.3212C16.8177 14.8727 16.5918 14.3526 16.5313 13.8194L14.8421 14.0111ZM3.22281 18.15C2.60233 18.15 2.17293 17.8442 1.97753 17.4998C1.79052 17.1703 1.79219 16.7789 2.09504 16.4231L0.80053 15.3212C0.00635755 16.2541 -0.0186484 17.4267 0.499013 18.3389C1.00829 19.2363 2.01492 19.85 3.22281 19.85V18.15ZM14.7772 19.85C15.9851 19.85 16.9917 19.2363 17.501 18.3389C18.0187 17.4267 17.9936 16.2541 17.1995 15.3212L15.905 16.4231C16.2078 16.7789 16.2095 17.1703 16.0225 17.4998C15.8271 17.8442 15.3977 18.15 14.7772 18.15V19.85ZM12.1199 5.37366V5.26995H10.4199V5.37366H12.1199ZM16.0841 9.87933C15.7998 7.37421 13.943 5.39044 11.5453 4.56949L10.9946 6.17783C12.8817 6.82395 14.197 8.32706 14.395 10.071L16.0841 9.87933ZM7.58005 5.37366V5.26995H5.88005V5.37366H7.58005ZM3.60504 10.071C3.80298 8.32706 5.1183 6.82395 7.00539 6.17783L6.45472 4.56949C4.05701 5.39044 2.20021 7.37421 1.91589 9.87933L3.60504 10.071ZM9 3.85C9.78421 3.85 10.4199 4.48573 10.4199 5.26995H12.1199C12.1199 3.54685 10.7231 2.15 9 2.15V3.85ZM9 2.15C7.2769 2.15 5.88005 3.54685 5.88005 5.26995H7.58005C7.58005 4.48573 8.21579 3.85 9 3.85V2.15ZM11.2041 20.7017C10.8965 21.5223 10.0445 22.15 9 22.15V23.85C10.7255 23.85 12.2301 22.8081 12.7959 21.2983L11.2041 20.7017ZM9 22.15C7.95548 22.15 7.10346 21.5223 6.79594 20.7017L5.20406 21.2983C5.76991 22.8081 7.27446 23.85 9 23.85V22.15Z" fill="white"/>
<circle cx="14" cy="4" r="4" fill="#F87265"/>
</svg>
