<svg width="24" height="24" viewBox="0 0 24 24" fill="none" xmlns="http://www.w3.org/2000/svg">
<path d="M22.5773 13.388C22.3255 15.3079 21.5559 17.1231 20.3509 18.6389C19.1459 20.1546 17.551 21.3138 15.7373 21.992C13.9235 22.6702 11.9594 22.842 10.0555 22.4887C8.15163 22.1355 6.3798 21.2707 4.93005 19.9871C3.4803 18.7034 2.40733 17.0493 1.82621 15.2022C1.24509 13.3551 1.17774 11.3846 1.63139 9.50209C2.08503 7.6196 3.04256 5.89611 4.40128 4.51645C5.76 3.1368 7.46865 2.15303 9.34398 1.67065C14.5426 0.337312 19.924 3.01331 21.9106 7.99998" stroke="white" stroke-width="2" stroke-linecap="round" stroke-linejoin="round"/>
<path d="M22.6667 1.33325V7.99992H16" stroke="white" stroke-width="2" stroke-linecap="round" stroke-linejoin="round"/>
</svg>
